<svg xmlns="http://www.w3.org/2000/svg" viewBox="0 0 320 80" role="img" aria-label="Université de Lumière">
  <!-- Shield emblem (white outline variant) -->
  <g transform="translate(4, 4)">
    <path d="M28,0 L56,8 L56,38 C56,54 42,66 28,72 C14,66 0,54 0,38 L0,8 Z" fill="#FFFFFF" fill-opacity="0.2"/>
    <path d="M28,0 L56,8 L56,38 C56,54 42,66 28,72 C14,66 0,54 0,38 L0,8 Z" fill="none" stroke="#FFFFFF" stroke-width="1.5"/>
    <!-- Stars pattern inside shield -->
    <circle cx="28" cy="22" r="3.5" fill="#FFFFFF"/>
    <circle cx="18" cy="30" r="2.5" fill="#FFFFFF"/>
    <circle cx="38" cy="30" r="2.5" fill="#FFFFFF"/>
    <circle cx="22" cy="40" r="2.5" fill="#FFFFFF"/>
    <circle cx="34" cy="40" r="2.5" fill="#FFFFFF"/>
    <circle cx="28" cy="50" r="2.5" fill="#FFFFFF"/>
  </g>
  <!-- Text block -->
  <text x="72" y="28" font-family="Georgia, 'Times New Roman', serif" font-size="22" font-weight="700" fill="#FFFFFF" letter-spacing="1">UNILUM</text>
  <line x1="72" y1="34" x2="310" y2="34" stroke="#FFFFFF" stroke-width="1.2" stroke-opacity="0.7"/>
  <text x="72" y="50" font-family="Arial, Helvetica, sans-serif" font-size="12" font-weight="400" fill="#FFFFFF" letter-spacing="0.5">Université de Lumière</text>
  <text x="72" y="65" font-family="Arial, Helvetica, sans-serif" font-size="9.5" font-weight="300" fill="#FFFFFF" fill-opacity="0.7" letter-spacing="0.3">Université européenne · Excellence · Innovation</text>
</svg>
